<svg width="61" height="61" viewBox="0 0 61 61" fill="none" xmlns="http://www.w3.org/2000/svg">
<circle cx="30.5" cy="30.5" r="29.5" stroke="#D6D9DE" stroke-width="2"/>
<path d="M38.4212 25.5937L30.0016 33.013L21.5802 25.5936C21.2448 25.2982 20.7337 25.3306 20.4384 25.6658C20.1432 26.001 20.1753 26.5121 20.5106 26.8075L29.4669 34.6982C29.6198 34.8328 29.8108 34.9001 30.0017 34.9001C30.1926 34.9001 30.3837 34.8328 30.5366 34.6981L39.491 26.8074C39.8261 26.5121 39.8584 26.0009 39.5631 25.6656C39.2675 25.3308 38.7565 25.2984 38.4212 25.5937Z" fill="#354657"/>
<path d="M40.5732 22.1558H19.4268C18.0887 22.1558 17 23.2444 17 24.5825V37.4177C17 38.7559 18.0887 39.8444 19.4268 39.8444H40.5732C41.9113 39.8444 43 38.7559 43 37.4177V24.5825C43 23.2445 41.9113 22.1558 40.5732 22.1558ZM41.3822 37.4177C41.3822 37.8637 41.0193 38.2266 40.5732 38.2266H19.4268C18.9807 38.2266 18.6178 37.8637 18.6178 37.4177V24.5825C18.6178 24.1365 18.9807 23.7736 19.4268 23.7736H40.5732C41.0193 23.7736 41.3822 24.1365 41.3822 24.5825V37.4177Z" fill="#354657"/>
</svg>
