<svg width="61" height="61" viewBox="0 0 61 61" fill="none" xmlns="http://www.w3.org/2000/svg">
<circle cx="30.5" cy="30.5" r="29.5" stroke="#D6D9DE" stroke-width="2"/>
<path d="M29.9998 18C24.4752 18 19.9808 22.495 19.9808 28.0202C19.9808 31.9682 21.6336 35.9617 24.7607 39.569C27.0963 42.2634 29.4109 43.7899 29.5084 43.8537C29.6576 43.9513 29.8288 44 29.9999 44C30.1709 44 30.342 43.9513 30.4914 43.8537C30.5887 43.7899 32.9037 42.2634 35.2393 39.5692C38.3666 35.9617 40.0196 31.9682 40.0196 28.0202C40.0195 22.495 35.5246 18 29.9998 18ZM29.9998 41.999C28.1571 40.6259 21.7771 35.3413 21.7771 28.0202C21.7771 23.4855 25.4657 19.7963 29.9998 19.7963C34.5342 19.7963 38.2231 23.4855 38.2231 28.0202C38.2231 35.3413 31.8426 40.6259 29.9998 41.999Z" fill="#354657"/>
<path d="M30.0004 24.0415C27.8077 24.0415 26.0238 25.8255 26.0238 28.0185C26.0238 30.2108 27.8077 31.9945 30.0004 31.9945C32.1931 31.9945 33.9769 30.2108 33.9769 28.0185C33.9769 25.8256 32.193 24.0415 30.0004 24.0415ZM30.0004 30.1981C28.7982 30.1981 27.8201 29.2203 27.8201 28.0185C27.8201 26.816 28.7982 25.8378 30.0004 25.8378C31.2025 25.8378 32.1806 26.816 32.1806 28.0185C32.1806 29.2203 31.2025 30.1981 30.0004 30.1981Z" fill="#354657"/>
</svg>
