<svg width="61" height="61" viewBox="0 0 61 61" fill="none" xmlns="http://www.w3.org/2000/svg">
<circle cx="30.5" cy="30.5" r="29.5" stroke="#D6D9DE" stroke-width="2"/>
<path d="M40.231 21.406C38.0345 19.2094 35.1139 17.9999 32.0078 18C31.4987 18 31.0863 18.4126 31.0863 18.9215C31.0863 19.4303 31.4989 19.8429 32.0078 19.8429C34.6218 19.8428 37.0793 20.8607 38.9278 22.7091C40.7764 24.5576 41.7943 27.0153 41.7941 29.6294C41.7941 30.1383 42.2066 30.5509 42.7156 30.5509C43.2245 30.5509 43.6371 30.1383 43.6371 29.6295C43.6372 26.523 42.4276 23.6025 40.231 21.406Z" fill="#354657"/>
<path d="M36.4405 29.6295C36.4405 30.1384 36.853 30.551 37.3621 30.5508C37.8709 30.5508 38.2834 30.1383 38.2834 29.6294C38.2831 26.1696 35.4679 23.3545 32.0079 23.354C32.0078 23.354 32.0079 23.354 32.0078 23.354C31.4989 23.354 31.0864 23.7664 31.0863 24.2753C31.0863 24.7842 31.4987 25.1968 32.0076 25.1969C34.4517 25.1973 36.4402 27.1857 36.4405 29.6295Z" fill="#354657"/>
<path d="M34.4018 34.328C32.9972 34.2553 32.2817 35.2998 31.9385 35.8016C31.6512 36.2216 31.7588 36.795 32.1788 37.0824C32.5989 37.3698 33.1723 37.2622 33.4597 36.8421C33.8651 36.2493 34.0488 36.156 34.298 36.1678C35.0954 36.2616 38.2364 38.5633 38.5509 39.283C38.6298 39.4949 38.6268 39.7027 38.5422 39.9554C38.2124 40.9341 37.6666 41.6219 36.9633 41.9443C36.2952 42.2506 35.4761 42.2228 34.595 41.8643C31.3052 40.5234 28.431 38.6521 26.0524 36.3022C26.0514 36.3013 26.0504 36.3004 26.0495 36.2994C23.7046 33.9232 21.8368 31.0526 20.4981 27.7678C20.1394 26.886 20.1117 26.0668 20.418 25.3988C20.7403 24.6955 21.4281 24.1497 22.406 23.8203C22.6596 23.7353 22.8669 23.7326 23.0769 23.8107C23.7992 24.1263 26.1008 27.2672 26.1937 28.0557C26.2069 28.3142 26.1129 28.4977 25.5206 28.9024C25.1004 29.1894 24.9924 29.7628 25.2796 30.183C25.5666 30.6032 26.1398 30.7111 26.5602 30.4241C27.0622 30.0813 28.1065 29.3677 28.034 27.9584C27.9541 26.4862 25.0905 22.5877 23.7222 22.0846C23.1137 21.8578 22.4735 21.8539 21.8189 22.0736C20.3461 22.5696 19.2824 23.4539 18.7427 24.6309C18.2194 25.7728 18.2359 27.0976 18.7913 28.4628C20.224 31.9781 22.2284 35.054 24.7489 37.6052C24.7551 37.6115 24.7613 37.6176 24.7677 37.6236C27.3171 40.1394 30.3894 42.1402 33.9 43.5712C34.603 43.8571 35.2953 44.0002 35.9574 44.0002C36.5808 44.0002 37.1777 43.8734 37.7313 43.6196C38.9084 43.0801 39.7927 42.0165 40.289 40.5427C40.5082 39.8893 40.5047 39.2494 40.2796 38.6437C39.7747 37.2717 35.8762 34.4081 34.4018 34.328Z" fill="#354657"/>
</svg>
